<svg width="15" height="16" viewBox="0 0 15 16" fill="none" xmlns="http://www.w3.org/2000/svg">
<path d="M1.48315 8.37256C2.30382 8.37256 2.96629 8.86302 2.96629 9.4706V14.0915C2.96629 14.699 2.30382 15.1895 1.48315 15.1895C0.662472 15.1895 0 14.699 0 14.0915V9.4706C0 8.86302 0.662472 8.37256 1.48315 8.37256Z" fill="#A21CAF"/>
<path d="M7.44945 4.37265C8.27013 4.37265 8.9326 4.86311 8.9326 5.47069V14.0915C8.9326 14.6991 8.27013 15.1896 7.44945 15.1896C6.62878 15.1896 5.96631 14.6991 5.96631 14.0915L5.96631 5.47069C5.96631 4.86311 6.62878 4.37265 7.44945 4.37265Z" fill="#A21CAF"/>
<path d="M13.4157 0C14.2364 0 14.8988 0.490457 14.8988 1.09804V14.0915C14.8988 14.6991 14.2364 15.1896 13.4157 15.1896C12.595 15.1896 11.9326 14.6991 11.9326 14.0915V1.09804C11.9326 0.490457 12.595 0 13.4157 0Z" fill="#3D3C4A"/>
</svg>
