<svg width="24" height="24" viewBox="0 0 24 24" fill="none" xmlns="http://www.w3.org/2000/svg">
<path d="M0 9.33575V14.6691C0 15.4024 0.6 16.0024 1.33333 16.0024H5.33333L9.72 20.3891C10.56 21.2291 12 20.6291 12 19.4424V4.54908C12 3.36242 10.56 2.76242 9.72 3.60242L5.33333 8.00242H1.33333C0.6 8.00242 0 8.60242 0 9.33575ZM18 12.0024C18 9.64242 16.64 7.61575 14.6667 6.62908V17.3624C16.64 16.3891 18 14.3624 18 12.0024ZM14.6667 1.93575V2.20242C14.6667 2.70908 15 3.14908 15.4667 3.33575C18.9067 4.70908 21.3333 8.08242 21.3333 12.0024C21.3333 15.9224 18.9067 19.2958 15.4667 20.6691C14.9867 20.8558 14.6667 21.2958 14.6667 21.8024V22.0691C14.6667 22.9091 15.5067 23.4958 16.28 23.2024C20.8 21.4824 24 17.1224 24 12.0024C24 6.88242 20.8 2.52242 16.28 0.802417C15.5067 0.495751 14.6667 1.09575 14.6667 1.93575Z" fill="#EAEAEA"/>
</svg>
